HIERARCHY
ROOT Hips
{
	OFFSET 0.000000 0.000000 0.000000
	CHANNELS 6 Xposition Yposition Zposition Xrotation Yrotation Zrotation
	JOINT LeftUpLeg_virtual
	{
		OFFSET 0.000000 0.000000 0.000000
		CHANNELS 3 Xrotation Yrotation Zrotation
		JOINT LeftUpLeg
		{
			OFFSET 13.026900 -6.336304 -1.092800
			CHANNELS 3 Xrotation Yrotation Zrotation
			JOINT LeftLeg
			{
				OFFSET 0.524474 -46.096886 9.782700
				CHANNELS 3 Xrotation Yrotation Zrotation
				JOINT LeftFoot
				{
					OFFSET -0.524474 -53.427422 -12.948200
					CHANNELS 3 Xrotation Yrotation Zrotation
					JOINT LeftToeBase
					{
						OFFSET 0.192200 -14.009700 16.364100
						CHANNELS 3 Xrotation Yrotation Zrotation
						JOINT LeftToe_End
						{
							OFFSET -1.784700 -0.561700 9.474800
							CHANNELS 3 Xrotation Yrotation Zrotation
							End Site
							{
								OFFSET 0 0 0
							}
						}
					}
				}
			}
		}
	}
	JOINT RightUpLeg_virtual
	{
		OFFSET 0.000000 0.000000 0.000000
		CHANNELS 3 Xrotation Yrotation Zrotation
		JOINT RightUpLeg
		{
			OFFSET -12.883000 -6.336304 -1.092800
			CHANNELS 3 Xrotation Yrotation Zrotation
			JOINT RightLeg
			{
				OFFSET -0.524587 -46.096825 9.782800
				CHANNELS 3 Xrotation Yrotation Zrotation
				JOINT RightFoot
				{
					OFFSET 0.524587 -53.427383 -12.948300
					CHANNELS 3 Xrotation Yrotation Zrotation
					JOINT RightToeBase
					{
						OFFSET -0.192200 -14.009700 16.364100
						CHANNELS 3 Xrotation Yrotation Zrotation
						JOINT RightToe_End
						{
							OFFSET 1.784700 -0.561700 9.474800
							CHANNELS 3 Xrotation Yrotation Zrotation
							End Site
							{
								OFFSET 0 0 0
							}
						}
					}
				}
			}
		}
	}
	JOINT Spine_virtual
	{
		OFFSET 0.000000 0.000000 0.000000
		CHANNELS 3 Xrotation Yrotation Zrotation
		JOINT Spine
		{
			OFFSET 0.072000 7.257294 -0.789700
			CHANNELS 3 Xrotation Yrotation Zrotation
			JOINT Spine1
			{
				OFFSET 0.000000 12.508769 -0.658067
				CHANNELS 3 Xrotation Yrotation Zrotation
				JOINT Spine1_split
				{
					OFFSET 0.000000 12.508769 -0.658067
					CHANNELS 3 Xrotation Yrotation Zrotation
					JOINT Spine2
					{
						OFFSET 0.000000 12.508769 -0.658067
						CHANNELS 3 Xrotation Yrotation Zrotation
						JOINT Neck_virtual
						{
							OFFSET 0.000000 0.000000 0.000000
							CHANNELS 3 Xrotation Yrotation Zrotation
							JOINT Neck
							{
								OFFSET 0.000000 14.033295 7.520400
								CHANNELS 3 Xrotation Yrotation Zrotation
								JOINT Head
								{
									OFFSET 0.000000 8.198502 5.703100
									CHANNELS 3 Xrotation Yrotation Zrotation
									JOINT HeadTop_End
									{
										OFFSET 0.000000 17.760803 13.332701
										CHANNELS 3 Xrotation Yrotation Zrotation
										End Site
										{
											OFFSET 0 0 0
										}
									}
								}
							}
						}
						JOINT LeftShoulder_virtual
						{
							OFFSET 0.000000 0.000000 0.000000
							CHANNELS 3 Xrotation Yrotation Zrotation
							JOINT LeftShoulder
							{
								OFFSET 6.292450 5.785301 -0.669000
								CHANNELS 3 Xrotation Yrotation Zrotation
								JOINT LeftShoulder_split
								{
									OFFSET 6.292450 5.785301 -0.669000
									CHANNELS 3 Xrotation Yrotation Zrotation
									JOINT LeftArm
									{
										OFFSET 13.907140 -6.093903 1.965100
										CHANNELS 3 Xrotation Yrotation Zrotation
										JOINT LeftForeArm
										{
											OFFSET 34.140198 0.000000 0.000000
											CHANNELS 3 Xrotation Yrotation Zrotation
											JOINT LeftHand
											{
												OFFSET 40.960209 0.000000 0.000000
												CHANNELS 3 Xrotation Yrotation Zrotation
												End Site
												{
													OFFSET 0 0 0
												}
											}
										}
									}
								}
							}
						}
						JOINT RightShoulder_virtual
						{
							OFFSET 0.000000 0.000000 0.000000
							CHANNELS 3 Xrotation Yrotation Zrotation
							JOINT RightShoulder
							{
								OFFSET -6.292450 5.785301 -0.669000
								CHANNELS 3 Xrotation Yrotation Zrotation
								JOINT RightShoulder_split
								{
									OFFSET -6.292450 5.785301 -0.669000
									CHANNELS 3 Xrotation Yrotation Zrotation
									JOINT RightArm
									{
										OFFSET -13.907140 -6.093903 1.965100
										CHANNELS 3 Xrotation Yrotation Zrotation
										JOINT RightForeArm
										{
											OFFSET -34.140198 0.000000 0.000000
											CHANNELS 3 Xrotation Yrotation Zrotation
											JOINT RightHand
											{
												OFFSET -40.960209 0.000000 0.000000
												CHANNELS 3 Xrotation Yrotation Zrotation
												End Site
												{
													OFFSET 0 0 0
												}
											}
										}
									}
								}
							}
						}
					}
				}
			}
		}
	}
}
MOTION
Frames: 7
Frame Time: 0.03333333
4.225333 103.001198 1.134930 0.000000 0.000000 0.000000 -2.474218 -49.206588 -2.786600 -40.465275 2.457141 12.209650 34.902017 -11.137937 1.353983 4.202038 -2.013981 -2.983016 -4.176667 -2.537397 1.991659 0.000000 0.000000 0.000000 -2.794786 -48.236012 -2.339406 0.818745 -1.995721 -14.153290 30.666815 -2.635517 -1.348219 -19.947424 -8.356784 25.940019 -7.971430 0.816678 0.205586 0.000000 0.000000 0.000000 -6.698656 -47.721289 -4.818361 10.822957 7.395598 0.510530 11.080056 9.838401 -3.806272 -1.202075 1.510348 0.403805 0.000000 0.000000 0.000000 11.743878 9.550737 -4.508437 -15.988974 -3.539659 3.276294 4.004031 22.863652 -6.403217 0.000000 0.000000 0.000000 13.345437 8.817434 -3.363207 0.264390 -3.552270 -9.784126 0.841497 1.813714 2.766202 -9.571527 -6.186580 -57.733369 9.242707 -58.842674 -0.346233 0.000000 0.000000 0.000000 10.369218 9.825096 -2.948463 1.165682 17.454098 7.086429 3.111478 -0.382564 2.564538 -18.059828 -20.529602 67.404630 4.406362 49.635797 -3.503408 0.000000 0.000000 0.000000 
4.791858 102.708725 0.894585 0.000000 0.000000 0.000000 -0.919569 -50.712324 -1.628222 -42.384268 0.876000 12.696537 35.452971 -11.243369 1.502111 4.959945 -1.665303 -2.673904 -3.111168 -2.385814 1.794538 0.000000 0.000000 0.000000 -1.278095 -48.722007 -1.257238 -0.171636 -1.902436 -14.803989 32.847667 -1.844925 -1.325085 -20.006483 -7.909208 25.828760 -6.428088 0.583895 0.277468 0.000000 0.000000 0.000000 -4.555169 -48.850551 -3.455481 10.806120 7.603262 0.570030 11.370645 9.683659 -3.829603 -0.641377 0.179891 1.133427 0.000000 0.000000 0.000000 12.151245 9.407358 -4.555594 -15.998885 -2.293147 3.625928 3.630266 24.216581 -6.993125 0.000000 0.000000 0.000000 13.505225 8.620395 -3.591587 -0.000852 -4.686308 -8.527540 -0.669690 -0.990255 0.045742 -10.143820 -4.926096 -57.271905 6.648906 -52.663084 -1.716347 0.000000 0.000000 0.000000 10.434570 9.693556 -3.069715 0.753884 17.328839 7.233896 4.411986 -0.414954 2.380993 -15.865266 -20.509310 67.397616 3.912761 51.748969 -3.253793 0.000000 0.000000 0.000000 
5.566009 101.195145 0.151268 0.000000 0.000000 0.000000 2.282329 -51.673936 1.370954 -46.801692 -1.438603 12.696360 37.524451 -10.620468 1.627600 5.462420 -0.440677 -3.375340 -1.159206 -2.051343 1.150237 0.000000 0.000000 0.000000 1.746248 -49.062444 1.493551 -4.696650 -1.756638 -16.202983 38.450820 -1.321840 -1.036504 -20.602827 -7.690257 24.759885 -4.961710 0.319575 0.370961 0.000000 0.000000 0.000000 -0.543293 -49.681174 -0.105240 10.833713 7.654251 0.383400 11.967007 9.247007 -3.901424 -0.332819 -0.977416 0.849879 0.000000 0.000000 0.000000 13.033894 8.875780 -4.703468 -17.764446 -1.107949 4.597403 2.356350 26.775329 -7.902792 0.000000 0.000000 0.000000 13.877329 8.151372 -3.885611 -0.418289 -6.193246 -6.662664 -2.344080 -4.278637 -2.975920 -11.376008 -7.902857 -55.291519 7.825471 -45.100822 -0.098753 0.000000 0.000000 0.000000 11.006935 9.226474 -3.323382 -0.012872 17.078239 7.601661 4.812777 0.406656 2.355152 -13.685932 -18.807624 65.999899 2.574537 53.476327 -2.221132 0.000000 0.000000 0.000000 
6.418363 98.533958 -0.969425 0.000000 0.000000 0.000000 6.963580 -51.759925 6.010336 -52.998778 -3.972256 11.776049 41.051097 -9.555471 1.802558 5.692079 1.228295 -5.552049 0.397311 -1.630861 0.278357 0.000000 0.000000 0.000000 5.911753 -49.616755 5.723748 -12.285323 -1.637851 -18.402297 46.571112 -1.005665 -0.584422 -21.891231 -7.371502 22.851895 -3.718921 0.045904 0.402065 0.000000 0.000000 0.000000 5.077560 -49.860518 5.014094 10.746878 7.453163 -0.016009 12.702327 8.492253 -3.952977 -0.736494 -2.023521 0.650850 0.000000 0.000000 0.000000 14.131176 8.060303 -4.849193 -21.038485 -0.037899 5.947672 0.820178 30.112726 -8.917125 0.000000 0.000000 0.000000 14.365015 7.442123 -4.091532 -0.913217 -7.485396 -4.988521 -2.982960 -6.273155 -5.540417 -13.974627 -13.405317 -52.472399 10.354186 -38.371221 2.324677 0.000000 0.000000 0.000000 11.992720 8.422569 -3.625803 -0.974764 16.956144 8.411373 4.128133 2.155444 2.582525 -11.776955 -15.657857 63.393998 0.517553 54.204310 -0.335129 0.000000 0.000000 0.000000 
7.331799 94.868965 -2.368507 0.000000 0.000000 0.000000 12.360218 -50.913391 11.567882 -60.265368 -6.302979 10.236321 45.771987 -8.355978 2.012175 5.794470 2.713644 -8.907132 0.692878 -1.220431 -0.467082 0.000000 0.000000 0.000000 10.823884 -49.830598 11.045387 -22.198682 -1.463321 -21.422598 55.888095 -0.782431 0.005125 -23.589771 -6.644891 20.858392 -2.883457 -0.224081 0.291956 0.000000 0.000000 0.000000 11.700043 -49.237150 11.163762 10.397413 6.906392 -0.545146 13.510844 7.473065 -3.999101 -0.467835 -2.727281 0.224324 0.000000 0.000000 0.000000 15.140906 7.056883 -4.876016 -25.234556 0.876066 7.427538 -0.259535 33.634679 -9.921837 0.000000 0.000000 0.000000 14.821700 6.556924 -4.197864 -1.506236 -8.366752 -4.355565 -2.458456 -6.763794 -5.482154 -16.976965 -18.895869 -49.904152 12.637626 -34.625183 4.398559 0.000000 0.000000 0.000000 13.224681 7.361576 -3.864288 -2.138935 17.406481 10.117065 2.405331 4.768045 2.971044 -10.478991 -11.814581 59.792603 -2.286955 53.412561 2.339715 0.000000 0.000000 0.000000 
8.033222 90.498550 -3.359043 0.000000 0.000000 0.000000 17.752259 -49.031517 17.079610 -67.932433 -8.005070 8.734282 51.409051 -7.323497 2.132482 5.692601 3.543980 -12.545974 -0.079819 -0.895674 -0.937708 0.000000 0.000000 0.000000 15.768919 -49.494119 16.656422 -32.902326 -1.134240 -25.060256 65.122186 -0.297942 0.585367 -25.668080 -5.357453 19.618974 -2.558322 -0.477589 0.013923 0.000000 0.000000 0.000000 18.417860 -48.182091 17.291522 9.817769 5.957277 -1.130928 14.260937 6.281622 -4.075497 0.198154 -3.232371 0.319916 0.000000 0.000000 0.000000 15.804081 5.939900 -4.778485 -29.704233 1.741894 9.003788 -0.344960 36.743833 -10.790816 0.000000 0.000000 0.000000 15.226245 5.551258 -4.292011 -2.259109 -8.767612 -5.243743 -1.269957 -5.747074 -3.761630 -19.448470 -22.136022 -48.190451 13.864154 -35.907349 5.960441 0.000000 0.000000 0.000000 14.450742 6.165771 -4.011447 -3.615500 18.728667 13.091437 -0.142012 6.991257 3.467364 -9.872005 -8.355397 55.534550 -5.454401 51.548435 5.285629 0.000000 0.000000 0.000000 
8.280711 85.456085 -3.909485 0.000000 0.000000 0.000000 22.005290 -46.542224 21.445112 -75.387182 -9.084350 7.951098 57.547124 -6.758057 2.124214 5.277670 3.656492 -15.665259 -1.034652 -0.683794 -1.131567 0.000000 0.000000 0.000000 20.115686 -48.718083 21.703817 -42.752469 -0.406432 -28.816261 73.465426 0.632024 0.846657 -28.863007 -3.750464 19.257044 -2.733343 -0.657641 -0.411918 0.000000 0.000000 0.000000 24.116968 -46.987439 22.337254 9.202962 4.745959 -1.670114 14.809582 4.982374 -4.210166 1.015607 -3.138103 0.924379 0.000000 0.000000 0.000000 15.945847 4.734974 -4.635169 -33.938660 2.813228 10.753785 0.659859 38.862711 -11.297220 0.000000 0.000000 0.000000 15.431972 4.462431 -4.475525 -3.090285 -8.858648 -7.338118 -0.430506 -4.194581 -2.086213 -21.348876 -22.761433 -48.101314 13.355726 -42.269845 6.832058 0.000000 0.000000 0.000000 15.440005 4.894946 -4.152364 -5.608484 20.806208 17.406751 -2.768211 8.548559 3.149093 -9.736029 -5.600450 51.724080 -8.571481 49.411767 7.705669 0.000000 0.000000 0.000000 
